# xmcd
#
# Track frame offsets:
# 150
# 18045
# 29262
# 39367
# 52175
# 64815
# 80407
# 92985
# 104602
# 115702
# 133192
# 146727
# 159970
# 175852
# 187902
# 198585
# 210467
# 217162
#
# Disc length: 3078 seconds
#
#
# Revision: 3
# Processed by: cddbd v1.5.1PL0 Copyright (c) Steve Scherf et al.
# Submitted via: FreeRIP 2.30 
#
DISCID=010c0412
DTITLE=Don Williams - Best Friends
DYEAR=1997
DGENRE=country
TTITLE0=Good Ole Boys Like Me
TTITLE1=Storybook Children
TTITLE2=Take My Hand For A While
TTITLE3=Amanda
TTITLE4=There's Never Been A Time
TTITLE5=Tears
TTITLE6=Coming Apart
TTITLE7=Follow Me Back To Louisville
TTITLE8=Spend Some Time With Me
TTITLE9=I Believe In You
TTITLE10=Ruby Tuesday
TTITLE11=Where Do I Go From Here
TTITLE12=I've Been Loved By The Best
TTITLE13=On Her Way To Being A Woman
TTITLE14=(There's) Always Something There To Remind Me
TTITLE15=Tulsa Time
TTITLE16=Lord I Hope This Day Is Good
TTITLE17=You're My Best Friend
EXTD=
EXTT0=
EXTT1=
EXTT2=
EXTT3=
EXTT4=
EXTT5=
EXTT6=
EXTT7=
EXTT8=
EXTT9=
EXTT10=
EXTT11=
EXTT12=
EXTT13=
EXTT14=
EXTT15=
EXTT16=
EXTT17=
PLAYORDER=
